<?xml version="1.0" encoding="utf-8"?>
<!-- Generator: Adobe Illustrator 25.3.1, SVG Export Plug-In . SVG Version: 6.00 Build 0)  -->
<svg version="1.1" id="Layer_1" xmlns="http://www.w3.org/2000/svg" xmlns:xlink="http://www.w3.org/1999/xlink" x="0px" y="0px"
	 viewBox="0 0 206.8 35.5" style="enable-background:new 0 0 206.8 35.5;" xml:space="preserve">
<style type="text/css">
	.st0{fill:#035C67;}
	.st1{fill:#9C182F;}
	.st2{fill:#3BBFAD;}
	.st3{fill:#008996;}
</style>
<g>
	<g>
		<g>
			<path class="st0" d="M45.9,22.1h-1.7v-18H56v1.5H45.9v6.1h9.1v1.5h-9.1V22.1z"/>
			<path class="st0" d="M60,22.1h-1.7v-18H60V22.1z"/>
			<path class="st0" d="M76.1,22.1H74l-5.7-8h-4.2v8h-1.7v-18h5c3.1,0,3.9,0,5,0.4c3,1,3.2,3.9,3.2,4.8c0,1.9-0.8,2.9-1.3,3.5
				c-1.3,1.2-3,1.3-4,1.4L76.1,22.1z M64.1,12.7h4.2c1.2,0,2.3,0,3-0.2c1.9-0.4,2.6-1.8,2.6-3.3c0-1.8-0.9-3.1-2.6-3.4
				c-0.5-0.1-0.7-0.1-3-0.1h-4.2V12.7z"/>
			<path class="st0" d="M88,8.5c-0.2-0.5-0.4-1.1-0.8-1.6c-0.9-1.2-2.3-1.8-3.9-1.8c-1.9,0-4.2,0.8-4.2,3.2c0,2.2,2,2.8,3,3.1
				c0.5,0.2,3.1,0.8,3.6,1c1,0.3,4.1,1.3,4.1,4.8c0,2.5-2.1,5.4-6.7,5.4c-1.9,0-3.3-0.5-4.2-1.1c-1.4-0.9-2.1-2.2-2.4-3.9l1.7-0.9
				c0,0.7,0.1,1.5,0.4,2.1c0.8,1.7,2.7,2.3,4.5,2.3c3.5,0,5-1.9,5-3.8c0-1.3-0.6-2-1.1-2.4c-0.8-0.7-1.9-0.9-4.2-1.6
				c-2.5-0.7-5.4-1.6-5.4-4.9c0-3.5,3.1-4.7,5.9-4.7c4.6,0,5.8,3,6.2,3.9L88,8.5z"/>
			<path class="st0" d="M98.4,22.1h-1.7V5.7h-5.6V4.2h13v1.5h-5.7V22.1z"/>
			<path class="st0" d="M127.1,18.2c-1.7,3.8-4.4,4.4-6.7,4.4c-1.2,0-3.9-0.2-5.7-2.4c-1.3-1.6-2.1-4.1-2.1-6.9
				c0-3.8,1.4-9.6,7.7-9.6c4.8,0,6.2,2.9,6.9,4.7l-1.7,0.9c-0.3-1.5-1.2-2.6-1.9-3.1c-1.2-0.9-2.6-0.9-3.3-0.9
				c-1.9,0-3.3,0.6-4.4,2.1c-1.2,1.7-1.6,3.8-1.6,5.7c0,1.2,0.2,4.1,1.5,5.9c1.4,1.9,3.5,2.1,4.8,2.1c0.9,0,1.9-0.1,2.8-0.8
				c0.6-0.4,1.6-1.5,2.1-3.1L127.1,18.2z"/>
			<path class="st0" d="M142.1,20.3c-1.8,2.1-3.9,2.3-5.4,2.3c-2.2,0-4-0.7-5.5-2.4c-1.3-1.5-2.3-3.8-2.3-7c0-5,2.4-9.4,7.8-9.4
				c6,0,7.7,5.2,7.7,9.3C144.3,15.8,143.5,18.6,142.1,20.3z M136.7,5.2c-4.6,0-6,4.5-6,8c0,3.3,1.3,7.9,5.9,7.9c5.5,0,5.9-6.6,5.9-8
				C142.5,9.8,141.2,5.2,136.7,5.2z"/>
			<path class="st0" d="M157.9,22.1h-11.7v-18h1.7v16.4h9.9V22.1z"/>
			<path class="st0" d="M171.2,20.3c-1.8,2.1-3.9,2.3-5.4,2.3c-2.2,0-4-0.7-5.5-2.4c-1.3-1.5-2.3-3.8-2.3-7c0-5,2.4-9.4,7.8-9.4
				c6,0,7.7,5.2,7.7,9.3C173.4,15.8,172.6,18.6,171.2,20.3z M165.8,5.2c-4.6,0-6,4.5-6,8c0,3.3,1.3,7.9,5.9,7.9c5.5,0,5.9-6.6,5.9-8
				C171.6,9.8,170.3,5.2,165.8,5.2z"/>
			<path class="st0" d="M189.4,22.1h-1.7L177.2,6.6v15.5h-1.7v-18h1.7l10.7,15.4l-0.2-15.4h1.7V22.1z"/>
			<path class="st0" d="M199.8,22.1h-1.7v-7.4l-6.7-10.5h2l5.5,8.9l5.8-8.9h2.1l-7,10.5V22.1z"/>
		</g>
		<g>
			<path class="st0" d="M48.3,30.4c-0.5,1.2-1.3,1.3-2,1.3c-0.4,0-1.2-0.1-1.8-0.7c-0.4-0.5-0.6-1.3-0.6-2.1c0-1.2,0.4-2.9,2.3-2.9
				c1.5,0,1.9,0.9,2.1,1.4l-0.5,0.3c-0.1-0.4-0.4-0.8-0.6-1c-0.4-0.3-0.8-0.3-1-0.3c-0.6,0-1,0.2-1.3,0.6c-0.4,0.5-0.5,1.1-0.5,1.7
				c0,0.4,0,1.3,0.5,1.8c0.4,0.6,1.1,0.6,1.4,0.6c0.3,0,0.6,0,0.9-0.2c0.2-0.1,0.5-0.4,0.6-0.9L48.3,30.4z"/>
			<path class="st0" d="M61.4,31.6h-0.5V29h-3.4v2.6H57v-5.5h0.5v2.4h3.4v-2.4h0.5V31.6z"/>
			<path class="st0" d="M70.7,26.1v3.3c0,0.6,0,1,0.3,1.4c0.2,0.2,0.6,0.5,1.3,0.5c0.2,0,0.5,0,0.7-0.1c0.4-0.2,0.6-0.4,0.8-0.9
				c0-0.2,0.1-0.5,0.1-0.7v-3.4h0.5v2.5c0,1.5,0,2-0.5,2.5c-0.4,0.4-1,0.6-1.6,0.6c-0.9,0-1.7-0.4-1.9-1.2c-0.1-0.4-0.1-0.7-0.1-1.9
				v-2.5H70.7z"/>
			<path class="st0" d="M87.1,31.6h-0.7l-1.7-2.4h-1.3v2.4H83v-5.5h1.5c1,0,1.2,0,1.5,0.1c0.9,0.3,1,1.2,1,1.4
				c0,0.6-0.2,0.9-0.4,1.1c-0.4,0.4-0.9,0.4-1.2,0.4L87.1,31.6z M83.5,28.7h1.3c0.4,0,0.7,0,0.9-0.1c0.6-0.1,0.8-0.6,0.8-1
				c0-0.5-0.3-0.9-0.8-1c-0.2,0-0.2,0-0.9,0h-1.3V28.7z"/>
			<path class="st0" d="M100.1,30.4c-0.5,1.2-1.3,1.3-2,1.3c-0.4,0-1.2-0.1-1.8-0.7c-0.4-0.5-0.6-1.3-0.6-2.1c0-1.2,0.4-2.9,2.3-2.9
				c1.5,0,1.9,0.9,2.1,1.4l-0.5,0.3c-0.1-0.4-0.4-0.8-0.6-1c-0.4-0.3-0.8-0.3-1-0.3c-0.6,0-1,0.2-1.3,0.6c-0.4,0.5-0.5,1.1-0.5,1.7
				c0,0.4,0,1.3,0.5,1.8c0.4,0.6,1.1,0.6,1.4,0.6c0.3,0,0.6,0,0.9-0.2c0.2-0.1,0.5-0.4,0.6-0.9L100.1,30.4z"/>
			<path class="st0" d="M113.2,31.6h-0.5V29h-3.4v2.6h-0.5v-5.5h0.5v2.4h3.4v-2.4h0.5V31.6z"/>
			<path class="st0" d="M122,29.3c0-0.2,0.1-0.5,0.2-0.7c0.1-0.3,0.3-0.5,0.5-0.7c0.2-0.2,0.4-0.3,0.6-0.3c0.2,0,0.3,0.1,0.4,0.2
				c0.1,0.1,0.2,0.3,0.2,0.6c0,0.3-0.1,0.6-0.2,0.8c-0.1,0.3-0.3,0.5-0.5,0.6c-0.2,0.1-0.4,0.2-0.5,0.2c-0.2,0-0.3-0.1-0.4-0.2
				C122.1,29.8,122,29.6,122,29.3z M122.3,29.6c0,0.1,0,0.2,0.1,0.3c0.1,0.1,0.1,0.1,0.2,0.1c0.3,0,0.5-0.2,0.6-0.7
				c0.2-0.5,0.2-0.9,0.2-1.1c0-0.1,0-0.2-0.1-0.3s-0.1-0.1-0.2-0.1c-0.2,0-0.4,0.2-0.6,0.7C122.4,28.9,122.3,29.2,122.3,29.6z"/>
			<path class="st0" d="M127,27.7l0,0.1h-0.5l-0.4,1.7c-0.2,0.8-0.4,1.3-0.7,1.5c-0.2,0.3-0.5,0.4-0.8,0.4c-0.2,0-0.3,0-0.4-0.1
				c-0.1-0.1-0.2-0.2-0.2-0.3c0-0.1,0-0.1,0.1-0.2c0,0,0.1-0.1,0.1-0.1c0.1,0,0.1,0,0.2,0.1c0,0,0.1,0.1,0.1,0.1c0,0,0,0,0,0.1l0,0
				c0,0,0,0.1,0.1,0.1c0,0,0.1,0,0.2,0c0.2,0,0.4-0.1,0.6-0.4c0.2-0.2,0.3-0.7,0.5-1.5l0.4-1.6h-0.6l0-0.1h0.6c0,0,0-0.1,0-0.2
				c0.3-0.9,0.7-1.4,1.2-1.4c0.2,0,0.3,0,0.4,0.1c0.1,0.1,0.1,0.1,0.1,0.2c0,0.1,0,0.2-0.1,0.2c-0.1,0-0.2-0.1-0.2-0.2
				c-0.1-0.1-0.1-0.1-0.2-0.1c-0.1,0-0.3,0.1-0.4,0.2c-0.1,0.1-0.2,0.4-0.4,1l-0.1,0.3H127z"/>
			<path class="st1" d="M140.6,30.4c-0.5,1.2-1.3,1.3-2,1.3c-0.4,0-1.2-0.1-1.8-0.7c-0.4-0.5-0.6-1.3-0.6-2.1c0-1.2,0.4-2.9,2.3-2.9
				c1.5,0,1.9,0.9,2.1,1.4l-0.5,0.3c-0.1-0.4-0.4-0.8-0.6-1c-0.4-0.3-0.8-0.3-1-0.3c-0.6,0-1,0.2-1.3,0.6c-0.4,0.5-0.5,1.1-0.5,1.7
				c0,0.4,0,1.3,0.5,1.8c0.4,0.6,1.1,0.6,1.4,0.6c0.3,0,0.6,0,0.9-0.2c0.2-0.1,0.5-0.4,0.6-0.9L140.6,30.4z"/>
			<path class="st1" d="M153.7,31.6h-0.5V29h-3.4v2.6h-0.5v-5.5h0.5v2.4h3.4v-2.4h0.5V31.6z"/>
			<path class="st1" d="M166.9,31.6h-0.7l-1.7-2.4h-1.3v2.4h-0.5v-5.5h1.5c1,0,1.2,0,1.5,0.1c0.9,0.3,1,1.2,1,1.4
				c0,0.6-0.2,0.9-0.4,1.1c-0.4,0.4-0.9,0.4-1.2,0.4L166.9,31.6z M163.2,28.7h1.3c0.4,0,0.7,0,0.9-0.1c0.6-0.1,0.8-0.6,0.8-1
				c0-0.5-0.3-0.9-0.8-1c-0.2,0-0.2,0-0.9,0h-1.3V28.7z"/>
			<path class="st1" d="M176.3,31.6h-0.5v-5.5h0.5V31.6z"/>
			<path class="st1" d="M188.6,27.5c0-0.1-0.1-0.3-0.2-0.5c-0.3-0.4-0.7-0.6-1.2-0.6c-0.6,0-1.3,0.2-1.3,1c0,0.7,0.6,0.9,0.9,1
				c0.2,0,0.9,0.2,1.1,0.3c0.3,0.1,1.3,0.4,1.3,1.4c0,0.8-0.6,1.6-2,1.6c-0.6,0-1-0.1-1.3-0.3c-0.4-0.3-0.7-0.7-0.7-1.2l0.5-0.3
				c0,0.2,0,0.4,0.1,0.6c0.2,0.5,0.8,0.7,1.4,0.7c1.1,0,1.5-0.6,1.5-1.2c0-0.4-0.2-0.6-0.3-0.7c-0.2-0.2-0.6-0.3-1.3-0.5
				c-0.8-0.2-1.7-0.5-1.7-1.5c0-1.1,1-1.4,1.8-1.4c1.4,0,1.8,0.9,1.9,1.2L188.6,27.5z"/>
			<path class="st1" d="M199.2,31.6h-0.5v-5h-1.7v-0.5h4v0.5h-1.7V31.6z"/>
		</g>
	</g>
	<g>
		<path class="st2" d="M6.1,18.2c-0.1,1.4,0.2,2.8,0.8,4c0.3,0.6,0.6,1.2,1,1.8c0.4,0.6,0.8,1.1,1.3,1.7c0.9,1.1,1.9,1.9,2.9,2.7
			c0.5,0.4,1.1,0.7,1.7,1l0.2,0.1l0.3,0.1c0.2,0.1,0.4,0.2,0.7,0.2c0.5,0.1,0.9,0.3,1.4,0.4c0.2,0.1,0.5,0.1,0.7,0.1l0.2,0l0.1,0
			l0.2,0l0.1,0l0.1,0l0,0l0,0l0,0l1,0.1c0.3,0,0.7,0,1,0c1.4-0.1,2.7-0.4,4-0.9c2.6-1,4.8-2.9,6.1-5.6c0.1-0.1,0.2-0.4,0.4-0.8
			c0.1-0.2,0.2-0.5,0.4-0.9c0.1-0.4,0.3-0.8,0.4-1.3c0.1-0.2,0.1-0.5,0.2-0.8c0-0.2,0.1-0.4,0.1-0.6c0-0.1,0-0.2,0.1-0.3
			c0,0,0-0.1,0-0.1l0-0.1l0.1-1.1l0,0l0-0.1l0-0.2c0-0.5,0-1-0.1-1.6c-0.3-2.2-1.2-4.7-3.1-6.8c-0.4-0.5-0.9-1-1.5-1.4
			c-0.3-0.2-0.5-0.4-0.8-0.6c-0.3-0.2-0.6-0.4-0.9-0.6c-0.3-0.2-0.6-0.4-0.9-0.5C24,6.1,23.9,6.1,23.7,6c-0.2-0.1-0.5-0.2-0.7-0.3
			c-0.5-0.2-1-0.3-1.5-0.4c-0.3-0.1-0.5-0.1-0.8-0.1l-0.4-0.1L19.9,5l0,0l0,0l-1.1-0.1l0,0l-0.3,0l-0.5,0c-0.4,0-0.7,0.1-1.1,0.1
			c-0.7,0.1-1.4,0.3-2.1,0.5c-0.7,0.2-1.3,0.4-1.9,0.8c-2.5,1.2-4.2,3.1-5.3,4.9c-0.3,0.5-0.5,0.9-0.7,1.4c0,0.1-0.1,0.2-0.1,0.3
			c0,0.1-0.1,0.3-0.2,0.4c-0.1,0.3-0.2,0.6-0.3,0.9C6.1,14.9,6,15.5,5.9,16c0,0.1,0,0.3,0,0.4l0,0.2l0,0c0,0,0,0.1,0,0.1
			c0.1,0.3,0.2,0.4,0.4,0.4c0.1,0,0.1-0.1,0.2-0.2c0-0.1,0.1-0.1,0.1-0.2l0-0.1c0,0,0,0,0-0.1l0-0.2c0.1-0.3,0.1-0.6,0.2-0.9
			c0.1-0.6,0.3-1.1,0.5-1.7c0.2-0.6,0.4-0.8,0.5-1.1c0.3-0.6,0.6-1,0.6-1c0.5-0.6,1.3-1.4,2.3-2.2c0.5-0.4,1.1-0.8,1.8-1.1
			C13.2,8,14,7.6,14.7,7.4c0.8-0.2,1.6-0.4,2.5-0.5c0.4,0,0.9,0,1.3,0l0.2,0l0.1,0l0.9,0l0,0l0,0l0.1,0l0.2,0L20,7l0.1,0l0,0l0.2,0
			c0.6,0.1,1.2,0.3,1.8,0.5c0.3,0.1,0.6,0.2,0.9,0.3c0.2,0.1,0.4,0.2,0.6,0.3c0.4,0.2,0.8,0.5,1.1,0.7c1.4,1.1,2.6,2.4,3.4,3.9
			c0.2,0.4,0.4,0.7,0.5,1.1c0.1,0.4,0.3,0.8,0.4,1.1c0.2,0.8,0.3,1.5,0.3,2.2c0,0.2,0,0.3,0,0.5l0,0.1l0,0.1l0,0l0,0l0,0.8l0,0.1
			c0,0.1,0,0.2,0,0.2c0,0.1,0,0.2,0,0.2c0,0.2-0.1,0.3-0.1,0.5c0,0.2-0.1,0.4-0.1,0.5c-0.2,0.7-0.4,1.3-0.6,1.8
			c-0.2,0.4-0.3,0.6-0.4,0.9c-0.8,1.7-2,3.1-3.4,4.2c-0.7,0.5-1.5,1-2.4,1.3c-0.4,0.2-0.9,0.3-1.3,0.4c-0.4,0.1-0.9,0.2-1.3,0.3
			c-0.2,0-0.5,0.1-0.7,0.1l-0.2,0l-0.1,0l0,0l-0.9,0l0,0l0,0l-0.1,0l-0.3,0l-0.1,0l0,0l-0.2,0c-0.3,0-0.6-0.1-1-0.2
			c-0.6-0.1-1.3-0.3-1.9-0.5c-1.8-0.7-3.5-1.8-4.8-3.3c-0.5-0.5-0.9-1-1.3-1.6c-0.4-0.5-0.7-1.1-1-1.7c-0.6-1.2-0.9-2.5-0.9-3.9
			c0-0.1,0-0.1-0.1-0.1C6.1,18.1,6.1,18.1,6.1,18.2z"/>
		<path class="st3" d="M26.2,11.9c-0.1-0.1-0.2-0.2-0.3-0.4l-0.3-0.4c-0.2-0.3-0.5-0.5-0.7-0.8c-0.3-0.2-0.5-0.5-0.8-0.7L24,9.6l0,0
			l0,0l0,0l0,0l-0.5-0.4c-0.2-0.1-0.5-0.3-0.7-0.4c-0.9-0.5-1.9-0.9-3-1.1c-2.1-0.4-4.4,0-6.3,1.3c-0.1,0.1-0.3,0.2-0.6,0.4
			c-0.1,0.1-0.4,0.3-0.6,0.4c-0.2,0.2-0.5,0.4-0.8,0.7c-0.1,0.1-0.3,0.3-0.4,0.4c-0.1,0.1-0.2,0.2-0.3,0.4c-0.1,0.1-0.1,0.2-0.2,0.3
			c0,0-0.1,0.1-0.1,0.1l-0.1,0.1l-0.4,0.6l0,0l0,0.1l-0.1,0.1c-0.2,0.3-0.4,0.7-0.6,1.1c-0.7,1.6-1.1,3.7-0.7,5.8
			c0.1,0.5,0.2,1.1,0.4,1.6c0.1,0.3,0.2,0.5,0.3,0.8c0.1,0.3,0.2,0.5,0.4,0.8c0.3,0.5,0.5,0.9,1.1,1.6c0.3,0.3,0.5,0.6,0.8,0.9
			c0.1,0.1,0.3,0.3,0.4,0.4l0.3,0.2l0.4,0.3l0,0l0,0l0.6,0.4l0,0l0.2,0.1l0.4,0.2c0.3,0.1,0.5,0.3,0.8,0.4c0.5,0.2,1.1,0.4,1.6,0.5
			c0.5,0.1,1.1,0.2,1.6,0.3c2.2,0.2,4.2-0.4,5.7-1.2c0.7-0.4,1.3-0.8,2.1-1.6c0.6-0.6,1.3-1.5,1.2-1.5c0.1-0.3,0.1-0.6-0.1-0.7
			c-0.1-0.1-0.2,0-0.3,0.1c-0.1,0-0.2,0.1-0.2,0.2l-0.1,0.1c0,0,0,0,0,0l-0.1,0.1c-0.1,0.2-0.3,0.3-0.5,0.4
			c-0.6,0.6-1.4,1.1-1.8,1.3c-0.4,0.2-0.8,0.4-0.8,0.4c-1.2,0.3-3.3,0.8-5.6,0.1c-1.2-0.3-2.3-0.9-3.3-1.8l-0.1-0.1l-0.1-0.1l0,0
			l-0.1-0.1c-0.3-0.3-0.6-0.6-0.8-0.9c-0.1-0.2-0.3-0.3-0.4-0.5l-0.2-0.4c-0.2-0.3-0.3-0.6-0.4-0.9c-1-2.4-0.6-5,0.4-6.7
			c0.1-0.1,0.1-0.2,0.2-0.3l0-0.1l0,0l0,0l0.2-0.4l0-0.1c0.1-0.1,0.1-0.2,0.2-0.2c0.1-0.1,0.1-0.1,0.2-0.2c0.1-0.1,0.3-0.4,0.5-0.5
			c0.3-0.3,0.6-0.6,0.9-0.8c0.2-0.2,0.4-0.3,0.5-0.4c1-0.8,2.3-1.3,3.5-1.5c0.6-0.1,1.3-0.1,1.9,0c0.3,0,0.7,0.1,1,0.2
			c0.3,0.1,0.6,0.2,0.9,0.3l0.5,0.2l0.1,0l0.1,0l0,0l0.4,0.3l0,0l0,0l0.1,0l0.4,0.2l0.1,0l0,0l0.1,0.1c0.2,0.1,0.4,0.3,0.5,0.4
			c0.3,0.3,0.7,0.6,1,1C26.2,13.4,26.4,12.3,26.2,11.9z"/>
		<path class="st0" d="M33.3,11.8c-0.7-1.8-1.5-3.3-2.5-4.7c-0.5-0.7-1.1-1.4-1.7-2c-0.1-0.1-0.3-0.3-0.6-0.5L27.8,4
			c-0.5-0.4-1-0.7-1.5-1.1c-0.5-0.3-1-0.6-1.5-0.9l-0.2-0.1l-0.1-0.1l-0.1,0l0,0l0,0l-1.1-0.4C22.9,1.1,22.4,1,22,0.8
			C20.2,0.2,18.4,0,16.5,0C12.8,0.1,9,1.5,6.1,4.3C5.9,4.5,5.6,4.7,5.2,5.2C5,5.3,4.6,5.7,4.3,6.1C4,6.5,3.6,7,3.2,7.6
			C3,7.8,2.9,8.1,2.7,8.4C2.5,8.7,2.4,8.9,2.2,9.2C2.1,9.3,2,9.5,1.9,9.7C1.9,9.8,1.8,9.9,1.8,10l-0.1,0.1l-0.5,1.1l0,0.1l0,0.1
			L1,11.7c-0.2,0.7-0.4,1.4-0.6,2.1c-0.7,3-0.7,6.7,0.7,10.2c0.3,0.9,0.8,1.7,1.2,2.6c0.2,0.4,0.5,0.8,0.8,1.2
			c0.3,0.4,0.6,0.8,0.9,1.2c0.7,0.8,1.2,1.4,2.4,2.3c0.5,0.4,1.1,0.8,1.7,1.2C8.4,32.7,8.7,32.9,9,33l0.5,0.3l0.8,0.5l0.1,0l0,0
			l1.2,0.5l0,0l0.4,0.1l0.7,0.2c0.5,0.1,1,0.3,1.4,0.4c1,0.2,1.9,0.3,2.9,0.4c1,0.1,1.9,0,2.9-0.1c3.8-0.4,7-2.1,9.3-4
			c1.1-1,2-1.9,3-3.4c0.9-1.3,1.7-3.1,1.5-2.9c0-0.6-0.1-1-0.4-1.2c-0.1-0.1-0.3,0-0.6,0.2c-0.1,0.1-0.2,0.2-0.4,0.4l-0.1,0.1
			c0,0,0,0-0.1,0.1l-0.1,0.2c-0.2,0.3-0.4,0.6-0.6,0.9c-0.9,1.2-2,2.4-2.6,2.9c-0.7,0.6-1.2,0.9-1.3,1c-1.9,0.9-5.4,2.4-9.7,2.1
			c-2.1-0.2-4.2-0.7-6.3-1.9l-0.3-0.2l-0.1-0.1l-0.1-0.1l-0.2-0.1c-0.6-0.4-1.2-0.8-1.8-1.3c-0.3-0.2-0.6-0.5-0.8-0.7l-0.5-0.6
			c-0.4-0.4-0.7-0.9-1-1.3c-2.5-3.7-2.7-8.4-1.6-11.6c0.1-0.2,0.1-0.4,0.2-0.6l0-0.1l0-0.1l0,0l0.3-0.7l0.1-0.1
			C6,11.8,6,11.6,6.1,11.5c0.1-0.1,0.1-0.3,0.2-0.4c0.2-0.3,0.4-0.7,0.6-1c0.4-0.7,0.9-1.2,1.2-1.7C8.5,8,8.8,7.7,9,7.5
			c1.5-1.7,3.4-2.9,5.6-3.7c1.1-0.3,2.2-0.6,3.3-0.7C18.5,3,19,3,19.6,3c0.6,0,1.1,0.1,1.7,0.2l0.9,0.2l0.2,0l0.1,0l0,0l0.8,0.3l0,0
			l0,0l0.2,0L24.3,4l0.2,0l0.1,0l0.3,0.1c0.4,0.2,0.7,0.4,1,0.6c0.7,0.4,1.4,0.8,2,1.3c1.9,1.6,3.6,3.5,4.7,6
			C32.9,12.9,33.7,12.7,33.3,11.8z"/>
		<path class="st1" d="M16.1,11.9c-0.7,0.3-1.3,0.8-1.7,1.4c-0.2,0.3-0.4,0.6-0.6,0.9c-0.2,0.3-0.3,0.7-0.5,1
			c-0.3,0.7-0.5,1.4-0.5,2.1c0,0.4,0,0.7,0,1.1l0,0.1l0,0.2c0,0.1,0,0.3,0.1,0.4c0,0.3,0.1,0.5,0.2,0.8c0,0.1,0.1,0.3,0.1,0.4l0,0.1
			l0,0l0,0.1l0,0.1l0,0l0,0l0,0l0,0l0.2,0.5c0.1,0.2,0.2,0.3,0.3,0.5c0.4,0.6,0.9,1.2,1.4,1.7c1.1,1,2.6,1.6,4.2,1.5
			c0.1,0,0.2,0,0.5,0c0.1,0,0.3,0,0.5-0.1c0.2,0,0.5-0.1,0.7-0.1c0.1,0,0.3-0.1,0.4-0.1c0.1,0,0.2-0.1,0.3-0.1c0,0,0.1,0,0.1,0
			c0,0,0.1,0,0.1,0l0,0l0.5-0.2l0,0l0,0l0.1,0c0.2-0.1,0.5-0.3,0.7-0.5c1-0.7,2-1.8,2.5-3.2c0.1-0.3,0.2-0.7,0.3-1.1
			c0-0.2,0.1-0.4,0.1-0.6c0-0.2,0-0.4,0-0.6c0-0.2,0-0.4,0-0.6c0-0.1,0-0.2,0-0.3c0-0.1,0-0.3-0.1-0.4c0-0.3-0.1-0.5-0.2-0.8
			c0-0.1-0.1-0.3-0.1-0.4L26,15.4l-0.1-0.2l0,0l0,0l-0.2-0.5l0,0l-0.1-0.1l-0.1-0.3c-0.1-0.2-0.2-0.3-0.3-0.5
			c-0.2-0.3-0.5-0.6-0.7-0.9c-0.3-0.3-0.5-0.5-0.8-0.7c-1.2-0.9-2.5-1.3-3.7-1.3c-0.3,0-0.6,0-0.8,0c-0.1,0-0.1,0-0.2,0
			c-0.1,0-0.2,0-0.3,0c-0.2,0-0.3,0.1-0.5,0.1c-0.3,0.1-0.6,0.2-0.9,0.3c-0.1,0-0.1,0.1-0.2,0.1l-0.1,0l0,0c0,0,0,0,0,0
			c-0.1,0.1-0.2,0.2-0.1,0.3c0,0,0.1,0.1,0.1,0.1c0,0,0.1,0,0.1,0l0,0c0,0,0,0,0,0l0.1,0c0.1,0,0.3-0.1,0.5-0.1
			c0.3-0.1,0.6-0.1,0.9-0.2c0.3,0,0.5,0,0.7,0c0.4,0,0.6,0,0.7,0c0.4,0.1,1,0.2,1.6,0.5c0.3,0.2,0.7,0.3,1,0.6
			c0.3,0.2,0.7,0.5,1,0.8c0.3,0.3,0.6,0.7,0.9,1.1c0.1,0.2,0.2,0.4,0.3,0.6l0,0.1l0,0l0.2,0.4l0,0l0,0l0,0l0,0.1l0,0.1l0,0l0,0
			l0,0.1c0.1,0.3,0.2,0.7,0.2,1c0,0.2,0,0.3,0.1,0.5c0,0.1,0,0.2,0,0.4c0,0.2,0,0.5-0.1,0.7c-0.1,1-0.5,1.9-1,2.6
			c-0.1,0.2-0.3,0.4-0.4,0.5c-0.1,0.2-0.3,0.3-0.5,0.5c-0.3,0.3-0.6,0.5-1,0.7c-0.1,0-0.2,0.1-0.2,0.1l-0.1,0l0,0l0,0l0,0l-0.4,0.2
			l0,0c0,0-0.1,0-0.1,0c0,0-0.1,0-0.1,0c-0.1,0-0.2,0.1-0.3,0.1c-0.1,0-0.2,0.1-0.3,0.1c-0.4,0.1-0.7,0.2-1,0.2c-0.2,0-0.4,0-0.5,0
			c-1,0.1-2-0.2-2.9-0.6c-0.4-0.2-0.9-0.5-1.2-0.8c-0.2-0.2-0.4-0.3-0.5-0.5c-0.2-0.2-0.3-0.4-0.5-0.6c-0.1-0.1-0.1-0.2-0.2-0.3
			L14,20.8l0,0l0,0l-0.2-0.4l0,0l0,0l0,0l-0.1-0.1l0,0l0,0l0-0.1c-0.1-0.2-0.1-0.3-0.2-0.5c-0.1-0.3-0.2-0.7-0.2-1
			c-0.1-1,0-2.1,0.4-3.2c0.1-0.3,0.3-0.7,0.4-1c0.2-0.3,0.3-0.6,0.6-0.9C15,12.8,15.5,12.3,16.1,11.9C16.2,12,16.2,11.9,16.1,11.9
			C16.2,11.9,16.2,11.9,16.1,11.9z"/>
	</g>
</g>
</svg>
